<svg width="23" height="20" viewBox="0 0 23 20" fill="none" xmlns="http://www.w3.org/2000/svg">
<path d="M11.5 3.75879C15.29 3.75879 18.67 5.88879 20.32 9.25879C19.73 10.4788 18.9 11.5288 17.91 12.3788L19.32 13.7888C20.71 12.5588 21.81 11.0188 22.5 9.25879C20.77 4.86879 16.5 1.75879 11.5 1.75879C10.23 1.75879 9.01 1.95879 7.86 2.32879L9.51 3.97879C10.16 3.84879 10.82 3.75879 11.5 3.75879ZM10.43 4.89879L12.5 6.96879C13.07 7.21879 13.53 7.67879 13.78 8.24879L15.85 10.3188C15.93 9.97879 15.99 9.61879 15.99 9.24879C16 6.76879 13.98 4.75879 11.5 4.75879C11.13 4.75879 10.78 4.80879 10.43 4.89879ZM1.51 1.62879L4.19 4.30879C2.56 5.58879 1.27 7.28879 0.5 9.25879C2.23 13.6488 6.5 16.7588 11.5 16.7588C13.02 16.7588 14.48 16.4688 15.82 15.9388L19.24 19.3588L20.65 17.9488L2.92 0.208786L1.51 1.62879ZM9.01 9.12879L11.62 11.7388C11.58 11.7488 11.54 11.7588 11.5 11.7588C10.12 11.7588 9 10.6388 9 9.25879C9 9.20879 9.01 9.17879 9.01 9.12879V9.12879ZM5.61 5.72879L7.36 7.47879C7.13 8.02879 7 8.62879 7 9.25879C7 11.7388 9.02 13.7588 11.5 13.7588C12.13 13.7588 12.73 13.6288 13.27 13.3988L14.25 14.3788C13.37 14.6188 12.45 14.7588 11.5 14.7588C7.71 14.7588 4.33 12.6288 2.68 9.25879C3.38 7.82879 4.4 6.64879 5.61 5.72879Z" fill="#999999"/>
</svg>
